<svg width="162" height="52" viewBox="0 0 162 52" fill="none" xmlns="http://www.w3.org/2000/svg">
<g clip-path="url(#clip0_39_201)">
<path d="M118.849 0.983398H123.609C128.052 1.95022 131.594 4.16112 133.89 8.34122V1.40283H142.713V18.9194C143.776 17.2772 144.544 16.0758 145.347 14.8317C148.163 10.5663 150.98 6.30093 153.895 2.03553C154.083 1.82278 154.311 1.65026 154.567 1.52815C154.822 1.40605 155.099 1.33684 155.381 1.32463C157.585 1.25354 159.789 1.32463 161.993 1.32463V36.7346H153.212V19.1256C152.657 19.714 152.133 20.3309 151.642 20.9739C148.515 25.8365 145.417 30.7133 142.283 35.5687C142.002 36.0095 141.579 36.6635 141.164 36.6777C138.763 36.7843 136.361 36.7346 133.763 36.7346V29.3981C130.946 34.6943 126.721 37.0758 121.158 37.0687C115.596 37.0616 111.511 34.5024 108.589 29.7393V36.6493H99.7941V19.1256C96.1536 24.8128 92.7525 30.045 89.4641 35.327C89.2286 35.7909 88.8619 36.1737 88.4106 36.4269C87.9593 36.68 87.4436 36.7921 86.9291 36.7488C75.4371 36.6919 63.9358 36.6919 52.425 36.7488C51.9353 36.8215 51.4356 36.7257 51.0064 36.4768C50.5772 36.228 50.2435 35.8404 50.059 35.3768C48.7141 32.6327 47.2001 29.9739 45.7495 27.2867C45.5313 26.8815 45.2637 26.5047 44.9116 25.9644C43.1653 29.2346 41.5105 32.263 39.9402 35.3341C39.7615 35.7929 39.439 36.1802 39.0221 36.4369C38.6051 36.6936 38.1164 36.8056 37.6305 36.7559C25.7372 36.699 13.8509 36.7559 1.96462 36.7559H0.429541V1.34595C0.781623 1.34595 1.00695 1.28908 1.23229 1.28908C13.689 1.28908 26.1456 1.28908 38.5952 1.33174C38.9489 1.3742 39.289 1.49419 39.5919 1.6833C39.8948 1.87241 40.153 2.12607 40.3486 2.42653C41.94 5.27013 43.3906 8.11373 45.0102 11.2204C46.5945 8.19193 48.1085 5.46918 49.4394 2.68956C49.611 2.21964 49.9361 1.82277 50.361 1.56432C50.786 1.30588 51.2855 1.20128 51.7772 1.26775C63.8395 1.31041 75.8948 1.26775 87.9571 1.26775H89.7176V18.8839C90.5273 17.6327 91.0836 16.7938 91.6188 15.9407C94.4777 11.4478 97.3225 6.94785 100.203 2.47629C100.512 1.99998 101.033 1.34595 101.484 1.32463C103.829 1.21088 106.188 1.27486 108.702 1.27486V8.27723C109.779 6.95496 110.723 5.61847 111.842 4.45259C113.744 2.49051 116.265 1.64454 118.849 0.983398ZM66.283 14.9739H78.3805V22.8436H66.3252V28.8649H80.7395V9.16586H66.283V14.9739ZM126.186 18.9052C125.996 16.7156 125.975 14.3768 125.552 12.109C125.13 9.84121 123.44 8.68956 120.947 8.78908C118.75 8.8815 116.99 10.2109 116.884 12.5569C116.687 16.7796 116.666 21.0308 116.884 25.2535C116.886 25.785 116.992 26.3107 117.196 26.8005C117.401 27.2903 117.699 27.7345 118.074 28.1072C118.449 28.48 118.894 28.7741 119.382 28.9725C119.87 29.1708 120.393 29.2696 120.919 29.263C123.461 29.391 125.144 28.2322 125.623 25.6232C125.989 23.4407 125.996 21.2369 126.186 18.9052ZM31.3283 3.72747V33.173C34.321 28.2678 37.0954 23.7464 39.8346 19.2038C39.9303 19.0184 39.9843 18.814 39.9928 18.6051C40.0014 18.3962 39.9642 18.188 39.8839 17.9952C37.1235 13.3317 34.3491 8.70377 31.3283 3.72747ZM57.3823 6.47155L57.0584 6.40046C54.7699 10.218 52.4532 14.0284 50.228 17.8815C50.1319 18.1452 50.0941 18.4269 50.1172 18.7069C50.1403 18.9869 50.2238 19.2584 50.3618 19.5024C52.0941 22.481 53.8826 25.4099 55.6994 28.3531C56.1712 29.1208 56.6641 29.8815 57.3823 31.0189V6.47155ZM21.822 12.8697L9.47101 27.5995L9.86534 27.9905C13.189 27.6279 13.7382 23.8388 16.3084 22.4028L21.8432 28.9502L21.822 12.8697ZM21.9488 10.4952L21.5545 10.0687C18.3012 10.481 17.6675 14.1422 15.1677 15.6848L9.70338 9.22273V25.1114L21.9488 10.4952Z" fill="black"/>
<path d="M118.849 0.983398C116.265 1.64454 113.744 2.4905 111.842 4.47392C110.723 5.63979 109.779 6.97628 108.702 8.29856V1.29619C106.188 1.29619 103.829 1.23221 101.484 1.34595C101.033 1.34595 100.512 2.05686 100.203 2.49761C97.3225 6.96918 94.4777 11.4692 91.6188 15.9621C91.0836 16.8151 90.5273 17.654 89.7176 18.9052V1.28908H87.9571C75.8948 1.28908 63.8395 1.28908 51.7772 1.28908C51.2855 1.2226 50.786 1.32721 50.361 1.58565C49.9361 1.8441 49.611 2.24097 49.4394 2.71088C48.1085 5.51183 46.6227 8.23458 45.0102 11.2417C43.3906 8.14927 41.94 5.25591 40.3486 2.44785C40.153 2.14087 39.8924 1.88152 39.5856 1.68851C39.2787 1.49551 38.9333 1.37365 38.5741 1.33174C26.1245 1.27487 13.6678 1.28908 1.21117 1.28908C0.985833 1.28908 0.7605 1.28908 0.408418 1.34595V36.7417H1.97166C13.8579 36.7417 25.7442 36.7417 37.6376 36.7417C38.1235 36.7914 38.6121 36.6794 39.0291 36.4227C39.4461 36.166 39.7685 35.7787 39.9472 35.3199C41.5175 32.2488 43.1723 29.2204 44.9186 25.9502C45.2707 26.4905 45.5383 26.8673 45.7566 27.2725C47.2072 29.9597 48.7211 32.6185 50.0661 35.3625C50.2506 35.8262 50.5843 36.2137 51.0135 36.4626C51.4427 36.7115 51.9424 36.8073 52.4321 36.7346C63.924 36.6967 75.4254 36.6967 86.9361 36.7346C87.4506 36.7778 87.9663 36.6658 88.4176 36.4126C88.869 36.1595 89.2357 35.7767 89.4711 35.3128C92.7666 30.0308 96.1607 24.8057 99.8012 19.1114V36.6351H108.596V29.7251C111.518 34.4881 115.596 37.0474 121.166 37.0545C126.735 37.0616 130.932 34.6801 133.77 29.3839V36.7346C136.368 36.7346 138.77 36.7843 141.171 36.6777C141.565 36.6777 142.009 36.0095 142.29 35.5687C145.424 30.7133 148.522 25.8365 151.649 20.9739C152.14 20.3309 152.664 19.714 153.219 19.1256V36.7346H162C161.887 36.9621 161.817 37.3388 161.655 37.3815C161.262 37.4316 160.865 37.4316 160.472 37.3815H1.90735e-06V0.983398H118.849Z" fill="white"/>
<path d="M161.993 1.3246C159.789 1.3246 157.585 1.25351 155.381 1.3246C155.099 1.33681 154.822 1.40602 154.567 1.52812C154.311 1.65023 154.083 1.82275 153.895 2.0355C151.008 6.3009 148.184 10.5663 145.347 14.8317C144.544 16.0402 143.776 17.2772 142.713 18.9194V1.4028H133.89V8.31986C131.594 4.13977 128.052 1.92175 123.609 0.962036C135.955 0.962036 148.297 0.962036 160.634 0.962036C161.1 1.02752 161.556 1.14925 161.993 1.3246Z" fill="white"/>
<path d="M66.283 14.9739V9.16589H80.7395V28.8649H66.3252V22.8436H78.3805V14.9739H66.283Z" fill="white"/>
<path d="M126.186 18.9051C125.996 21.2369 125.989 23.462 125.602 25.6232C125.13 28.2322 123.44 29.3909 120.898 29.263C120.372 29.2695 119.849 29.1708 119.361 28.9724C118.873 28.774 118.428 28.48 118.053 28.1072C117.678 27.7344 117.379 27.2903 117.175 26.8005C116.971 26.3107 116.865 25.7849 116.863 25.2535C116.666 21.0307 116.687 16.7796 116.863 12.5568C116.969 10.2393 118.729 8.88145 120.926 8.78903C123.398 8.6895 125.088 9.74164 125.531 12.1089C125.975 14.4762 125.996 16.7156 126.186 18.9051Z" fill="white"/>
<path d="M31.3283 3.72742C34.321 8.70372 37.1235 13.3317 39.8839 17.9952C39.9642 18.1879 40.0014 18.3961 39.9928 18.605C39.9843 18.8139 39.9303 19.0183 39.8346 19.2037C37.0954 23.7464 34.321 28.2677 31.3283 33.1729V3.72742Z" fill="white"/>
<path d="M57.4035 6.4716V31.019C56.6993 29.8816 56.1923 29.1209 55.7205 28.3531C53.9249 25.41 52.1152 22.4811 50.383 19.5024C50.2449 19.2584 50.1614 18.9869 50.1383 18.7069C50.1152 18.4269 50.153 18.1452 50.2492 17.8816C52.4743 14.0285 54.791 10.218 57.0795 6.40051L57.4035 6.4716Z" fill="white"/>
<path d="M21.8432 12.8555V28.9503L16.3084 22.4029C13.7382 23.8247 13.189 27.628 9.86534 27.9905L9.47101 27.5995L21.8432 12.8555Z" fill="white"/>
<path d="M21.9699 10.4811L9.70338 25.0901V9.22278L15.2029 15.692C17.7027 14.1493 18.3364 10.4882 21.5897 10.0759L21.9699 10.4811Z" fill="white"/>
<path d="M3.18282 51.7132C3.1287 51.6487 3.08777 51.5741 3.06239 51.4935C3.03701 51.413 3.02768 51.3282 3.03495 51.244V41.6966C3.02768 41.6124 3.03701 41.5276 3.06239 41.4471C3.08777 41.3666 3.1287 41.2919 3.18282 41.2274C3.31614 41.1259 3.48086 41.0755 3.64757 41.0852H6.66844C7.63059 41.0008 8.59236 41.2517 9.39355 41.7961C9.68244 42.0381 9.9117 42.3444 10.0632 42.6911C10.2148 43.0378 10.2844 43.4153 10.2667 43.7938C10.2714 44.3065 10.108 44.8064 9.80197 45.2156C9.50253 45.6324 9.09241 45.9553 8.61897 46.1469V46.2108C9.19513 46.3322 9.71299 46.6485 10.0869 47.1074C10.4608 47.5664 10.6683 48.1404 10.6751 48.7345C10.7027 49.1685 10.6314 49.6031 10.4666 50.0048C10.3018 50.4066 10.0479 50.7649 9.72451 51.0521C8.9027 51.6525 7.89895 51.9441 6.88673 51.8767H3.64757C3.56322 51.8821 3.47865 51.8704 3.39883 51.8424C3.31902 51.8143 3.24557 51.7704 3.18282 51.7132ZM6.43606 45.3791C6.81164 45.4047 7.18319 45.2881 7.47822 45.0521C7.59986 44.9531 7.6974 44.8273 7.76332 44.6844C7.82925 44.5414 7.86179 44.3851 7.85847 44.2274C7.85847 43.4668 7.39372 43.0829 6.45014 43.0829H5.38686V45.3791H6.43606ZM6.87968 49.8435C7.25313 49.8694 7.62258 49.7527 7.91481 49.5165C8.04083 49.4002 8.13921 49.2568 8.20261 49.0967C8.26601 48.9367 8.2928 48.7643 8.28097 48.5924C8.29153 48.4191 8.25829 48.246 8.18439 48.0894C8.11048 47.9327 7.99833 47.7975 7.85847 47.6966C7.48866 47.476 7.06199 47.372 6.63323 47.398H5.38686V49.8435H6.87968Z" fill="#7CB418"/>
<path d="M17.2309 51.3933V41.5474C17.2309 41.2061 17.5337 41.0355 18.1463 41.0355H18.6815C19.2871 41.0355 19.5969 41.2061 19.5969 41.5474V51.3933C19.5969 51.7346 19.2871 51.9052 18.6815 51.9052H18.1534C17.5337 51.8767 17.2309 51.7346 17.2309 51.3933Z" fill="#7CB418"/>
<path d="M27.8567 50.5544C27.0317 49.3554 26.5895 47.9303 26.5895 46.4703C26.5895 45.0103 27.0317 43.5853 27.8567 42.3862C28.8472 41.4715 30.1409 40.9642 31.4832 40.9642C32.8255 40.9642 34.1192 41.4715 35.1096 42.3862C35.9262 43.5886 36.3632 45.0124 36.3632 46.4703C36.3632 47.9282 35.9262 49.352 35.1096 50.5544C34.1215 51.4737 32.8269 51.984 31.4832 51.984C30.1395 51.984 28.8449 51.4737 27.8567 50.5544ZM33.3281 49.0758C33.7966 48.294 34.0154 47.3855 33.9548 46.4739C34.0177 45.5642 33.7987 44.6574 33.3281 43.8791C33.1202 43.5855 32.8419 43.3499 32.5192 43.1945C32.1965 43.0391 31.8401 42.9689 31.4832 42.9905C31.1251 42.9676 30.7673 43.0372 30.4432 43.1927C30.1192 43.3482 29.8398 43.5844 29.6312 43.8791C29.1582 44.6566 28.9367 45.5635 28.9975 46.4739C28.939 47.3863 29.1602 48.2948 29.6312 49.0758C29.8398 49.3704 30.1192 49.6067 30.4432 49.7621C30.7673 49.9176 31.1251 49.9872 31.4832 49.9644C31.8401 49.986 32.1965 49.9158 32.5192 49.7604C32.8419 49.6049 33.1202 49.3694 33.3281 49.0758Z" fill="#7CB418"/>
<path d="M53.4108 51.7631C52.9574 51.6608 52.5273 51.4726 52.1434 51.2086C51.8617 51.0166 51.7138 50.8247 51.7138 50.6256C51.7271 50.4301 51.7849 50.2404 51.8828 50.0711C51.9903 49.864 52.1253 49.6726 52.2842 49.5024C52.4321 49.3389 52.5588 49.2536 52.6644 49.2536C52.8143 49.2914 52.9571 49.3538 53.0869 49.4384C53.3725 49.5911 53.6691 49.7218 53.9742 49.8294C54.2743 49.9266 54.5885 49.9723 54.9037 49.9645C55.2558 49.9728 55.6043 49.8922 55.9177 49.7299C56.0581 49.6437 56.1716 49.5193 56.2451 49.3709C56.3186 49.2225 56.3491 49.0562 56.3331 48.891C56.3388 48.7383 56.3063 48.5867 56.2386 48.45C56.1709 48.3133 56.0702 48.1961 55.9458 48.109C55.5506 47.8534 55.1306 47.639 54.6924 47.4692L53.9883 47.1635C53.407 46.9015 52.8918 46.5102 52.4813 46.019C52.0866 45.4459 51.9 44.7528 51.9532 44.0569C51.9312 43.4341 52.1091 42.8207 52.4602 42.3081C52.8002 41.8432 53.2642 41.4856 53.7981 41.2773C54.3611 41.0551 54.9611 40.9441 55.5656 40.9503C56.0396 40.9444 56.5125 40.9969 56.9739 41.1067C57.3305 41.185 57.6696 41.3297 57.9738 41.5332C58.1992 41.6943 58.3118 41.8578 58.3118 42.0237C58.3007 42.2115 58.2529 42.3951 58.171 42.564C58.087 42.7673 57.973 42.9567 57.833 43.1256C57.793 43.1882 57.7403 43.2414 57.6784 43.2818C57.6165 43.3223 57.5468 43.349 57.4739 43.3602C57.3857 43.3528 57.2997 43.3287 57.2204 43.2891L56.9246 43.1612C56.5541 43.0388 56.1667 42.9765 55.7768 42.9763C55.3899 42.9414 55.0021 43.0337 54.6713 43.2394C54.5783 43.3104 54.5022 43.4015 54.4485 43.5061C54.3949 43.6106 54.3652 43.726 54.3615 43.8436C54.3534 44.0821 54.4281 44.316 54.5727 44.5048C54.7168 44.6784 54.894 44.821 55.0938 44.9242C55.298 45.0308 55.5938 45.173 55.9951 45.3507C56.4806 45.5539 56.9512 45.7915 57.4035 46.0616C57.7901 46.3024 58.1156 46.631 58.3541 47.0214C58.6426 47.4999 58.7847 48.0539 58.7625 48.6138C58.7907 49.2943 58.6166 49.9677 58.2625 50.5474C57.9547 51.032 57.511 51.413 56.988 51.6422C56.4589 51.8722 55.8881 51.9884 55.3121 51.9834C54.6714 51.9961 54.032 51.922 53.4108 51.7631Z" fill="#7CB418"/>
<path d="M66.2548 50.6327C65.438 49.737 65.0296 48.3389 65.0296 46.4384C65.0296 42.7844 66.7266 40.9597 70.1207 40.9645C70.6432 40.9651 71.1644 41.0175 71.6769 41.1209C72.1081 41.1934 72.5245 41.3375 72.9091 41.5474C73.1697 41.6967 73.3035 41.8673 73.3035 42.038C73.2886 42.2354 73.2309 42.4271 73.1345 42.5996C73.0273 42.8221 72.8924 43.03 72.7331 43.2181C72.6853 43.2889 72.6239 43.3493 72.5525 43.3957C72.4812 43.4421 72.4013 43.4735 72.3177 43.4882C72.1912 43.4531 72.0686 43.4055 71.9515 43.346C71.6971 43.2444 71.4359 43.1612 71.1699 43.0972C70.8088 43.0202 70.4403 42.9845 70.0714 42.9906C69.6955 42.9617 69.3184 43.0256 68.9724 43.1767C68.6265 43.3278 68.3221 43.5615 68.0856 43.8579C67.5963 44.6288 67.3689 45.5396 67.4378 46.4526C67.4378 48.7986 68.3039 49.9645 70.0432 49.9645C70.444 49.9723 70.8441 49.9269 71.2332 49.8294C71.5658 49.7365 71.8907 49.6177 72.205 49.474C72.3082 49.4093 72.4231 49.3658 72.543 49.346C72.6306 49.3543 72.7152 49.3823 72.7907 49.4278C72.8662 49.4733 72.9307 49.5352 72.9796 49.609C73.1171 49.7914 73.2286 49.9924 73.3105 50.2062C73.3832 50.358 73.4285 50.5217 73.4443 50.6896C73.4443 50.9526 73.2612 51.1943 72.9091 51.4005C72.496 51.6225 72.0483 51.7716 71.5853 51.8413C71.0767 51.9369 70.5606 51.9869 70.0432 51.9906C68.311 51.9858 67.0482 51.5332 66.2548 50.6327Z" fill="#7CB418"/>
<path d="M80.1198 51.3933V41.5474C80.1198 41.2061 80.4226 41.0355 81.0352 41.0355H81.5281C82.1407 41.0355 82.4435 41.2061 82.4435 41.5474V51.3933C82.4435 51.7346 82.1407 51.9052 81.5281 51.9052H81C80.3944 51.8767 80.1198 51.7346 80.1198 51.3933Z" fill="#7CB418"/>
<path d="M90.0696 51.7132C90.0155 51.6488 89.9746 51.5741 89.9492 51.4936C89.9238 51.413 89.9145 51.3282 89.9218 51.244V41.6966C89.9145 41.6125 89.9238 41.5277 89.9492 41.4471C89.9746 41.3666 90.0155 41.2919 90.0696 41.2275C90.2001 41.1203 90.367 41.0693 90.5344 41.0853H95.886C95.9551 41.0792 96.0244 41.0934 96.0856 41.1262C96.1469 41.159 96.1974 41.209 96.2311 41.2701C96.3198 41.4507 96.3587 41.652 96.3437 41.853V42.3294C96.3586 42.5326 96.3197 42.7362 96.2311 42.9194C96.1958 42.9786 96.1447 43.0267 96.0837 43.0581C96.0227 43.0895 95.9543 43.103 95.886 43.0971H92.2737V45.3293H95.4706C95.5404 45.3244 95.6103 45.3391 95.6724 45.3717C95.7345 45.4043 95.7865 45.4536 95.8227 45.5142C95.905 45.6992 95.9413 45.9018 95.9283 46.1042V46.5805C95.9412 46.7807 95.905 46.9809 95.8227 47.1635C95.7865 47.224 95.7345 47.2733 95.6724 47.3059C95.6103 47.3386 95.5404 47.3532 95.4706 47.3483H92.2737V49.8436H95.9001C95.9702 49.837 96.0407 49.8509 96.1031 49.8837C96.1656 49.9164 96.2173 49.9667 96.2522 50.0284C96.3345 50.2109 96.3708 50.4112 96.3578 50.6113V51.0876C96.3717 51.2878 96.3354 51.4883 96.2522 51.6706C96.2173 51.7323 96.1656 51.7825 96.1031 51.8153C96.0407 51.8481 95.9702 51.862 95.9001 51.8554H90.5344C90.4514 51.8649 90.3674 51.8573 90.2875 51.8328C90.2075 51.8084 90.1334 51.7677 90.0696 51.7132Z" fill="#7CB418"/>
<path d="M103.477 51.3934V41.5474C103.477 41.2204 103.78 41.0498 104.392 41.0498H105.047C105.252 41.044 105.457 41.0729 105.653 41.1351C105.821 41.1954 105.963 41.3137 106.054 41.4692L109.483 46.8081C109.683 47.1007 109.867 47.4045 110.033 47.718H110.096C110.096 47.4834 110.096 47.1351 110.096 46.673V41.5616C110.096 41.2346 110.406 41.064 111.011 41.064H111.455C112.061 41.064 112.371 41.2346 112.371 41.5616V51.4076C112.371 51.7417 112.061 51.9052 111.455 51.9052H110.878C110.67 51.911 110.463 51.8822 110.265 51.8199C110.099 51.7593 109.959 51.6409 109.871 51.4858L106.35 46.0688C106.148 45.7771 105.965 45.4732 105.801 45.1588H105.737C105.737 45.3934 105.737 45.7417 105.737 46.2038V51.3863C105.737 51.7204 105.434 51.8839 104.829 51.8839H104.385C103.78 51.8768 103.477 51.7275 103.477 51.3934Z" fill="#7CB418"/>
<path d="M120.637 50.6327C119.821 49.737 119.405 48.3365 119.405 46.4384C119.405 42.7844 121.104 40.9597 124.503 40.9645C125.023 40.9647 125.542 41.0171 126.052 41.1209C126.486 41.1936 126.905 41.3377 127.292 41.5474C127.552 41.6967 127.686 41.8673 127.686 42.038C127.671 42.2354 127.614 42.4271 127.517 42.5996C127.41 42.8221 127.275 43.03 127.116 43.2181C126.954 43.3958 126.82 43.4882 126.693 43.4882C126.568 43.4505 126.445 43.403 126.327 43.346C126.076 43.2433 125.817 43.1601 125.552 43.0972C125.191 43.0202 124.823 42.9845 124.454 42.9906C124.078 42.9617 123.701 43.0256 123.355 43.1767C123.009 43.3278 122.705 43.5615 122.468 43.8579C121.976 44.628 121.747 45.5388 121.813 46.4526C121.813 48.7986 122.687 49.9645 124.426 49.9645C124.827 49.9723 125.227 49.9269 125.616 49.8294C125.948 49.7354 126.273 49.6166 126.588 49.474C126.691 49.4093 126.806 49.3658 126.926 49.346C127.012 49.3544 127.096 49.3823 127.17 49.4279C127.245 49.4734 127.308 49.5354 127.355 49.609C127.497 49.7894 127.611 49.9908 127.693 50.2062C127.763 50.3591 127.808 50.5223 127.827 50.6896C127.827 50.9526 127.644 51.1943 127.292 51.4005C126.876 51.6234 126.426 51.7725 125.961 51.8413C125.455 51.9369 124.941 51.9869 124.426 51.9906C122.717 51.9858 121.454 51.5332 120.637 50.6327Z" fill="#7CB418"/>
<path d="M134.798 51.7133C134.744 51.6488 134.703 51.5742 134.678 51.4936C134.652 51.4131 134.643 51.3283 134.65 51.2441V41.6967C134.643 41.6125 134.652 41.5277 134.678 41.4472C134.703 41.3667 134.744 41.292 134.798 41.2275C134.931 41.126 135.096 41.0756 135.263 41.0853H140.615C140.685 41.0787 140.755 41.0926 140.818 41.1254C140.88 41.1582 140.932 41.2085 140.967 41.2702C141.049 41.4527 141.085 41.653 141.072 41.8531V42.3294C141.085 42.5319 141.049 42.7344 140.967 42.9195C140.93 42.9793 140.878 43.0276 140.816 43.059C140.753 43.0904 140.684 43.1036 140.615 43.0972H137.002V45.3294H140.206C140.275 45.3242 140.344 45.3388 140.405 45.3715C140.466 45.4042 140.517 45.4537 140.551 45.5143C140.636 45.6985 140.675 45.9012 140.664 46.1043V46.5806C140.675 46.7814 140.636 46.9818 140.551 47.1635C140.517 47.2241 140.466 47.2736 140.405 47.3063C140.344 47.339 140.275 47.3536 140.206 47.3484H137.002V49.8436H140.629C140.699 49.837 140.769 49.8509 140.832 49.8837C140.894 49.9165 140.946 49.9668 140.981 50.0285C141.063 50.211 141.099 50.4113 141.086 50.6114V51.0877C141.1 51.2879 141.064 51.4884 140.981 51.6707C140.946 51.7324 140.894 51.7826 140.832 51.8154C140.769 51.8482 140.699 51.8621 140.629 51.8555H135.263C135.18 51.8638 135.096 51.8555 135.016 51.8311C134.937 51.8067 134.863 51.7667 134.798 51.7133Z" fill="#7CB418"/>
<path d="M149.184 51.763C148.731 51.6607 148.301 51.4725 147.917 51.2085C147.635 51.0166 147.494 50.8246 147.494 50.6256C147.505 50.4305 147.56 50.2406 147.656 50.0711C147.764 49.8639 147.899 49.6726 148.058 49.5023C148.205 49.3388 148.332 49.2535 148.438 49.2535C148.588 49.2913 148.73 49.3538 148.86 49.4384C149.147 49.5897 149.443 49.7204 149.748 49.8294C150.048 49.9266 150.362 49.9722 150.677 49.9644C151.029 49.9728 151.378 49.8921 151.691 49.7298C151.832 49.644 151.947 49.5198 152.021 49.3715C152.096 49.2232 152.128 49.0567 152.114 48.891C152.118 48.7377 152.084 48.5859 152.015 48.4493C151.946 48.3127 151.844 48.1957 151.719 48.109C151.324 47.8534 150.904 47.639 150.466 47.4692L149.762 47.1635C149.18 46.9014 148.665 46.5102 148.255 46.0189C147.857 45.4468 147.668 44.7536 147.72 44.0568C147.698 43.434 147.875 42.8206 148.227 42.308C148.567 41.8431 149.031 41.4856 149.564 41.2772C150.127 41.0551 150.727 40.9441 151.332 40.9502C151.806 40.9439 152.279 40.9965 152.74 41.1066C153.097 41.185 153.436 41.3296 153.74 41.5331C153.965 41.6943 154.078 41.8578 154.078 42.0237C154.067 42.2114 154.019 42.395 153.937 42.5639C153.853 42.7655 153.742 42.9545 153.606 43.1256C153.564 43.1877 153.51 43.2406 153.447 43.2809C153.384 43.3212 153.314 43.3482 153.24 43.3602C153.152 43.3528 153.066 43.3286 152.987 43.2891L152.691 43.1611C152.321 43.0382 151.933 42.9758 151.543 42.9763C151.156 42.9414 150.768 43.0337 150.438 43.2393C150.345 43.3103 150.268 43.4014 150.215 43.506C150.161 43.6106 150.132 43.7259 150.128 43.8436C150.12 44.0821 150.194 44.3159 150.339 44.5047C150.483 44.6783 150.66 44.821 150.86 44.9241C151.064 45.0308 151.36 45.173 151.761 45.3507C152.247 45.5538 152.718 45.7914 153.17 46.0616C153.556 46.3024 153.882 46.631 154.12 47.0213C154.409 47.4999 154.551 48.0539 154.529 48.6137C154.557 49.2942 154.383 49.9676 154.029 50.5474C153.721 51.0319 153.277 51.413 152.754 51.6421C152.225 51.8722 151.654 51.9884 151.078 51.9834C150.44 51.9954 149.803 51.9213 149.184 51.763Z" fill="#7CB418"/>
</g>
<defs>
<clipPath id="clip0_39_201">
<rect width="162" height="51" fill="white" transform="translate(0 0.983398)"/>
</clipPath>
</defs>
</svg>
