<svg width="99" height="41" viewBox="0 0 99 41" fill="none" xmlns="http://www.w3.org/2000/svg">
<g clip-path="url(#clip0_52_220)">
<path d="M6.2521 40.6064H5.09328L2.46733 36.9642V40.6064H1.31064V35.2925H2.46733L5.09328 38.9406V35.2925H6.2521V40.6064Z" fill="#006838"/>
<path d="M11.6231 38.8195H8.27207C8.28243 39.09 8.40668 39.3462 8.61865 39.5343C8.82319 39.7073 9.0934 39.7998 9.37135 39.7921C9.56276 39.8031 9.7533 39.7604 9.91772 39.6698C10.0821 39.5791 10.2127 39.4447 10.292 39.2843H11.5401C11.4117 39.6848 11.1444 40.0359 10.7789 40.2842C10.3783 40.5519 9.89202 40.6893 9.39686 40.6748C8.98195 40.681 8.57238 40.5881 8.20828 40.4053C7.86173 40.2276 7.5777 39.9627 7.38966 39.6417C7.19808 39.2858 7.09842 38.8942 7.09842 38.4973C7.09842 38.1003 7.19808 37.7087 7.38966 37.3528C7.57355 37.0315 7.85593 36.7667 8.2019 36.5912C8.57029 36.4098 8.98321 36.3184 9.40112 36.3256C9.80908 36.3193 10.2121 36.4079 10.5727 36.5834C10.9119 36.752 11.191 37.007 11.3764 37.3177C11.571 37.6534 11.6691 38.0291 11.6613 38.4094C11.6616 38.5468 11.6488 38.6841 11.6231 38.8195ZM10.4557 38.1047C10.4584 37.9801 10.4309 37.8564 10.3754 37.7426C10.3199 37.6289 10.2377 37.5278 10.1347 37.4466C9.91941 37.281 9.64564 37.1935 9.36497 37.2005C9.09936 37.1939 8.84069 37.2789 8.63991 37.4388C8.43595 37.6135 8.30759 37.85 8.27845 38.1047H10.4557Z" fill="#006838"/>
<path d="M18.8588 36.394L17.5171 40.6065H16.2668L15.4312 37.6635L14.5956 40.6065H13.3368L11.9888 36.394H13.1625L13.9747 39.6027L14.8529 36.394H16.0776L16.9281 39.5949L17.7382 36.394H18.8588Z" fill="#006838"/>
<path d="M26.2518 35.3003V40.6064H25.0951V38.3488H22.6159V40.6064H21.4571V35.3003H22.6159V37.4817H25.0951V35.3003H26.2518Z" fill="#006838"/>
<path d="M28.2378 40.4053C27.8876 40.2281 27.5993 39.9633 27.4064 39.6417C27.1993 39.2914 27.0952 38.8976 27.1045 38.4992C27.0949 38.101 27.2021 37.7077 27.4149 37.3606C27.6141 37.0368 27.9089 36.7714 28.2654 36.5951C28.6362 36.4181 29.0479 36.3257 29.4657 36.3257C29.8835 36.3257 30.2952 36.4181 30.666 36.5951C31.0216 36.7725 31.3161 37.0377 31.5165 37.3606C31.7283 37.7081 31.8355 38.1011 31.8269 38.4992C31.8358 38.8996 31.7255 39.2946 31.508 39.6417C31.3056 39.9626 31.0115 40.2267 30.6575 40.4053C30.2847 40.5875 29.8678 40.6802 29.4455 40.6748C29.0242 40.683 28.6079 40.5901 28.2378 40.4053ZM30.0217 39.6065C30.2108 39.5086 30.3646 39.3619 30.464 39.1847C30.5808 38.9725 30.6378 38.7368 30.6298 38.4992C30.6531 38.1618 30.53 37.8297 30.2875 37.5755C30.1781 37.4702 30.0459 37.3872 29.8994 37.3317C29.7529 37.2762 29.5954 37.2495 29.437 37.2532C29.2815 37.2502 29.1271 37.2774 28.9839 37.3329C28.8406 37.3884 28.7117 37.4711 28.6056 37.5755C28.3668 37.8314 28.2463 38.1628 28.2697 38.4992C28.246 38.8348 28.3632 39.1661 28.5971 39.4249C28.7016 39.5296 28.8293 39.6126 28.9716 39.6681C29.1139 39.7237 29.2675 39.7507 29.4221 39.7471C29.6319 39.7489 29.8385 39.7004 30.0217 39.6065Z" fill="#006838"/>
<path d="M34.4167 36.5228C34.6679 36.3914 34.9527 36.324 35.2417 36.3275V37.4446H34.9355C34.6379 37.4247 34.3431 37.5092 34.1105 37.6809C33.9255 37.8371 33.8341 38.1125 33.8341 38.5011V40.6005H32.6753V36.3939H33.8341V37.0482C33.9767 36.8305 34.1772 36.6497 34.4167 36.5228Z" fill="#006838"/>
<path d="M36.0965 35.7144C36.0325 35.6561 35.9816 35.5867 35.947 35.5103C35.9123 35.4339 35.8944 35.3519 35.8944 35.2691C35.8944 35.1863 35.9123 35.1043 35.947 35.0279C35.9816 34.9515 36.0325 34.8821 36.0965 34.8238C36.1646 34.7648 36.2447 34.7187 36.3323 34.6882C36.4199 34.6577 36.5132 34.6434 36.6068 34.6461C36.7001 34.6432 36.7931 34.6574 36.8804 34.6879C36.9677 34.7184 37.0474 34.7647 37.115 34.8238C37.1795 34.8819 37.2308 34.9511 37.2658 35.0276C37.3008 35.1041 37.3189 35.1862 37.3189 35.2691C37.3189 35.3521 37.3008 35.4342 37.2658 35.5106C37.2308 35.5871 37.1795 35.6564 37.115 35.7144C37.0474 35.7736 36.9677 35.8198 36.8804 35.8503C36.7931 35.8808 36.7001 35.895 36.6068 35.8921C36.5132 35.8948 36.4199 35.8806 36.3323 35.8501C36.2447 35.8196 36.1646 35.7734 36.0965 35.7144ZM37.1766 36.394V40.6065H36.0178V36.394H37.1766Z" fill="#006838"/>
<path d="M39.3795 39.7316H41.4249V40.6065H38.0654V39.7472L40.0684 37.269H38.0654V36.394H41.393V37.2533L39.3795 39.7316Z" fill="#006838"/>
<path d="M43.1685 40.4053C42.8187 40.2275 42.5306 39.9629 42.3371 39.6417C42.13 39.2914 42.0259 38.8976 42.0352 38.4992C42.0235 38.0996 42.1285 37.7045 42.3392 37.3548C42.5384 37.031 42.8333 36.7656 43.1897 36.5892C43.5605 36.4122 43.9722 36.3198 44.39 36.3198C44.8079 36.3198 45.2196 36.4122 45.5903 36.5892C45.9468 36.7656 46.2416 37.031 46.4408 37.3548C46.6526 37.7022 46.7598 38.0952 46.7512 38.4933C46.7601 38.8937 46.6498 39.2887 46.4323 39.6358C46.227 39.9581 45.929 40.2222 45.5712 40.3994C45.1984 40.5816 44.7815 40.6743 44.3592 40.6689C43.9442 40.6763 43.5342 40.5855 43.1685 40.4053ZM44.9524 39.6065C45.142 39.5091 45.2959 39.3623 45.3947 39.1847C45.5115 38.9725 45.5685 38.7368 45.5605 38.4992C45.5725 38.3321 45.5484 38.1645 45.4897 38.006C45.431 37.8474 45.3387 37.7011 45.2182 37.5755C45.1101 37.4713 44.9796 37.3889 44.835 37.3335C44.6905 37.278 44.535 37.2507 44.3783 37.2532C44.2225 37.2499 44.0677 37.277 43.9241 37.3325C43.7804 37.388 43.6512 37.4708 43.5448 37.5755C43.3068 37.8317 43.187 38.1631 43.211 38.4992C43.1868 38.8346 43.3032 39.1658 43.5363 39.4249C43.6408 39.5296 43.7685 39.6126 43.9108 39.6681C44.0531 39.7237 44.2067 39.7507 44.3613 39.7471C44.566 39.7465 44.7673 39.6981 44.946 39.6065H44.9524Z" fill="#006838"/>
<path d="M51.4609 36.808C51.6372 36.9873 51.7728 37.1971 51.8597 37.4252C51.9466 37.6532 51.983 37.8949 51.967 38.136V40.6065H50.8231V38.2805C50.8455 37.9973 50.7471 37.7171 50.5488 37.4993C50.453 37.4081 50.337 37.3368 50.2086 37.2903C50.0802 37.2438 49.9424 37.2232 49.8046 37.2298C49.6648 37.2229 49.525 37.2433 49.3945 37.2898C49.264 37.3362 49.1458 37.4077 49.0476 37.4993C48.8469 37.7161 48.7469 37.9967 48.7691 38.2805V40.6065H47.6103V36.394H48.7691V36.9193C48.9264 36.7345 49.1299 36.5871 49.3623 36.4897C49.6093 36.3842 49.8788 36.3308 50.1512 36.3334C50.3932 36.326 50.6344 36.3642 50.8597 36.4459C51.085 36.5275 51.2896 36.6508 51.4609 36.808Z" fill="#006838"/>
<path d="M59.1155 38.3313C59.3234 38.5677 59.4347 38.8634 59.4302 39.1672C59.4368 39.4323 59.3576 39.6933 59.2027 39.9171C59.041 40.14 58.8129 40.3156 58.5457 40.4229C58.2245 40.5503 57.877 40.6122 57.5272 40.6045H55.0416V35.3004H57.4251C57.7728 35.2918 58.1185 35.351 58.4394 35.4742C58.6989 35.576 58.9205 35.745 59.0773 35.9605C59.2221 36.1719 59.296 36.4177 59.2899 36.6674C59.3023 36.9485 59.2075 37.2248 59.022 37.4486C58.8379 37.6595 58.5878 37.8136 58.3054 37.89C58.6262 37.9385 58.9154 38.096 59.1155 38.3313ZM56.194 37.4877H57.2572C57.4853 37.5017 57.7114 37.4408 57.8951 37.3158C57.9707 37.2552 58.0301 37.1796 58.0688 37.0946C58.1075 37.0096 58.1245 36.9176 58.1183 36.8256C58.124 36.7331 58.1069 36.6407 58.0682 36.5551C58.0296 36.4696 57.9704 36.3931 57.8951 36.3315C57.7124 36.2044 57.4859 36.1419 57.2572 36.1558H56.194V37.4877ZM58.0184 39.5558C58.0978 39.4916 58.1603 39.4116 58.2011 39.322C58.242 39.2323 58.2602 39.1353 58.2544 39.0383C58.2605 38.9377 58.2414 38.8372 58.1986 38.7445C58.1559 38.6517 58.0906 38.5692 58.0078 38.5032C57.8172 38.365 57.5783 38.2955 57.3358 38.3079H56.194V39.7374H57.3614C57.5988 39.7525 57.8342 39.6887 58.0248 39.5578L58.0184 39.5558Z" fill="#006838"/>
<path d="M61.2078 40.4053C60.858 40.2276 60.5699 39.9629 60.3764 39.6417C60.1693 39.2914 60.0652 38.8976 60.0745 38.4992C60.0667 38.0986 60.1761 37.7034 60.3913 37.3548C60.5905 37.031 60.8853 36.7656 61.2418 36.5892C61.6126 36.4122 62.0242 36.3198 62.4421 36.3198C62.8599 36.3198 63.2716 36.4122 63.6424 36.5892C63.9988 36.7656 64.2937 37.031 64.4929 37.3548C64.6995 37.705 64.8076 38.097 64.8076 38.4953C64.8076 38.8936 64.6995 39.2856 64.4929 39.6358C64.2875 39.9581 63.9896 40.2222 63.6317 40.3994C63.2589 40.5816 62.842 40.6743 62.4198 40.6689C61.9976 40.6797 61.5798 40.5888 61.2078 40.4053ZM62.9917 39.6065C63.1815 39.5087 63.3359 39.3621 63.4361 39.1847C63.5529 38.9725 63.61 38.7368 63.602 38.4992C63.6137 38.332 63.5893 38.1643 63.5301 38.0057C63.471 37.8472 63.3784 37.701 63.2575 37.5755C63.1482 37.47 63.0161 37.3868 62.8695 37.3313C62.723 37.2758 62.5654 37.2492 62.407 37.2532C62.2515 37.25 62.097 37.277 61.9537 37.3325C61.8104 37.3881 61.6816 37.4709 61.5756 37.5755C61.336 37.831 61.2154 38.1627 61.2397 38.4992C61.2152 38.8349 61.3324 39.1665 61.5671 39.4249C61.671 39.5298 61.7983 39.6128 61.9403 39.6684C62.0823 39.7241 62.2357 39.7509 62.39 39.7471C62.6005 39.7495 62.808 39.701 62.9917 39.6065Z" fill="#006838"/>
<path d="M66.9955 37.2689V39.3077C66.9897 39.3634 66.9965 39.4195 67.0156 39.4727C67.0346 39.5258 67.0654 39.5747 67.1061 39.6163C67.2147 39.6892 67.3485 39.7232 67.4824 39.712H68.0204V40.6084H67.2932C66.3151 40.6084 65.8268 40.1722 65.8282 39.2999V37.2689H65.2817V36.3939H65.8282V35.353H66.9955V36.3939H68.0204V37.2689H66.9955Z" fill="#006838"/>
<path d="M68.8369 37.3549C69.0016 37.0422 69.2603 36.7793 69.5824 36.5973C69.9046 36.4152 70.2767 36.3217 70.6548 36.3277C70.9669 36.3239 71.2751 36.391 71.5521 36.523C71.7943 36.6386 72.005 36.8028 72.1687 37.0034V36.4019H73.3361V40.6144H72.1687V39.9914C72.0088 40.1976 71.7973 40.3657 71.5521 40.4816C71.2727 40.6151 70.9613 40.6823 70.6463 40.6768C70.2708 40.681 69.9018 40.5861 69.5832 40.4034C69.2588 40.2116 68.9984 39.9413 68.8305 39.6223C68.6401 39.2666 68.5453 38.8741 68.5541 38.4778C68.549 38.0881 68.646 37.703 68.8369 37.3549ZM72.0029 37.8373C71.9008 37.6595 71.746 37.5119 71.5564 37.4115C71.4195 37.3366 71.2675 37.2879 71.1095 37.2684C70.9516 37.2489 70.791 37.259 70.6374 37.298C70.4838 37.3371 70.3404 37.4043 70.2159 37.4956C70.0913 37.587 69.9882 37.7005 69.9128 37.8295C69.7952 38.0317 69.7366 38.2584 69.7427 38.4876C69.7374 38.7186 69.7959 38.947 69.9128 39.1516C70.0152 39.3323 70.1696 39.4836 70.3593 39.5891C70.538 39.689 70.7433 39.7417 70.9525 39.7414C71.1646 39.7425 71.3732 39.6912 71.5564 39.593C71.746 39.4926 71.9008 39.345 72.0029 39.1672C72.1121 38.9599 72.1688 38.7326 72.1688 38.5023C72.1688 38.2719 72.1121 38.0446 72.0029 37.8373Z" fill="#006838"/>
<path d="M78.3349 36.808C78.5112 36.9873 78.6468 37.1971 78.7337 37.4251C78.8205 37.6532 78.857 37.8948 78.841 38.136V40.6064H77.6822V38.2805C77.7046 37.9972 77.6063 37.7171 77.4079 37.4993C77.3121 37.408 77.1961 37.3367 77.0677 37.2902C76.9393 37.2437 76.8015 37.2231 76.6637 37.2298C76.5239 37.223 76.3842 37.2434 76.2537 37.2899C76.1232 37.3364 76.0049 37.4077 75.9067 37.4993C75.706 37.7161 75.606 37.9966 75.6282 38.2805V40.6064H74.4694V36.3939H75.6282V36.9193C75.7855 36.7344 75.989 36.5871 76.2214 36.4896C76.4691 36.3841 76.7394 36.3307 77.0124 36.3334C77.2566 36.3242 77.5002 36.3616 77.7278 36.4433C77.9555 36.525 78.1622 36.6492 78.3349 36.808Z" fill="#006838"/>
<path d="M80.0211 35.7142C79.9565 35.6562 79.9052 35.587 79.8702 35.5105C79.8352 35.434 79.8172 35.3519 79.8172 35.269C79.8172 35.186 79.8352 35.1039 79.8702 35.0274C79.9052 34.951 79.9565 34.8817 80.0211 34.8237C80.1609 34.7091 80.3418 34.6458 80.5292 34.6458C80.7167 34.6458 80.8976 34.7091 81.0374 34.8237C81.102 34.8817 81.1533 34.951 81.1883 35.0274C81.2233 35.1039 81.2413 35.186 81.2413 35.269C81.2413 35.3519 81.2233 35.434 81.1883 35.5105C81.1533 35.587 81.102 35.6562 81.0374 35.7142C80.8976 35.8288 80.7167 35.8922 80.5292 35.8922C80.3418 35.8922 80.1609 35.8288 80.0211 35.7142ZM81.1012 36.3939V40.6063H79.953V36.3939H81.1012Z" fill="#006838"/>
<path d="M82.2345 37.3548C82.4182 37.036 82.697 36.7718 83.0383 36.5932C83.3974 36.4095 83.8031 36.3165 84.2141 36.3237C84.7184 36.3051 85.2148 36.4427 85.6238 36.7143C86.0066 36.9878 86.2723 37.3764 86.3744 37.8118H85.1241C85.0653 37.6392 84.9475 37.4885 84.7882 37.3822C84.6171 37.2744 84.4129 37.2197 84.2056 37.2259C84.0553 37.2206 83.9057 37.2479 83.769 37.3055C83.6323 37.3632 83.5123 37.4497 83.4189 37.5579C83.2085 37.8308 83.1064 38.1617 83.1297 38.4953C83.1062 38.8272 83.2083 39.1563 83.4189 39.4269C83.5123 39.5351 83.6323 39.6216 83.769 39.6793C83.9057 39.737 84.0553 39.7643 84.2056 39.7589C84.4089 39.7741 84.6116 39.724 84.7792 39.6171C84.9467 39.5103 85.0686 39.3533 85.1241 39.173H86.3744C86.2642 39.6037 85.998 39.9872 85.6196 40.2608C85.2138 40.5436 84.7146 40.6897 84.2056 40.6748C83.7946 40.682 83.3889 40.589 83.0298 40.4053C82.6885 40.2267 82.4097 39.9625 82.226 39.6437C82.0357 39.2878 81.9368 38.8967 81.9368 38.5002C81.9368 38.1038 82.0357 37.7126 82.226 37.3568L82.2345 37.3548Z" fill="#006838"/>
<path d="M87.2057 37.3549C87.3703 37.0425 87.6287 36.7798 87.9504 36.5978C88.2721 36.4158 88.6438 36.322 89.0216 36.3276C89.3343 36.3236 89.6433 36.3907 89.921 36.5229C90.1627 36.6391 90.3734 36.8032 90.5376 37.0033V36.4018H91.7049V40.6143H90.5376V39.9913C90.3776 40.1976 90.1662 40.3657 89.921 40.4815C89.6414 40.6146 89.3301 40.6817 89.0152 40.6768C88.6396 40.6812 88.2706 40.5863 87.9521 40.4034C87.6277 40.2116 87.3672 39.9413 87.1994 39.6222C87.0083 39.2667 86.9128 38.8742 86.9208 38.4778C86.9165 38.0879 87.0142 37.7028 87.2057 37.3549ZM90.3718 37.8353C90.2697 37.6575 90.1149 37.5099 89.9252 37.4096C89.7423 37.3137 89.5352 37.2632 89.3246 37.2632C89.1139 37.2632 88.9069 37.3137 88.7239 37.4096C88.5366 37.5097 88.3835 37.6557 88.2816 37.8314C88.164 38.0336 88.1054 38.2603 88.1115 38.4895C88.1062 38.7205 88.1648 38.949 88.2816 39.1535C88.384 39.3342 88.5385 39.4855 88.7281 39.591C88.9062 39.6907 89.1107 39.7434 89.3193 39.7433C89.532 39.7444 89.7413 39.6931 89.9252 39.5949C90.1149 39.4945 90.2697 39.3469 90.3718 39.1692C90.4809 38.9618 90.5377 38.7345 90.5377 38.5042C90.5377 38.2739 90.4809 38.0465 90.3718 37.8392V37.8353Z" fill="#006838"/>
<path d="M93.9971 34.98V40.6064H92.8383V34.98H93.9971Z" fill="#006838"/>
<path d="M95.8852 40.4894C95.6065 40.3783 95.3629 40.2043 95.1772 39.9836C95.0063 39.7799 94.907 39.5334 94.8922 39.2766H96.0596C96.0712 39.3569 96.1008 39.4341 96.1466 39.5034C96.1923 39.5726 96.2532 39.6324 96.3253 39.6789C96.4897 39.7892 96.6896 39.8456 96.8931 39.8391C97.0747 39.8485 97.2552 39.8062 97.4097 39.718C97.4671 39.6847 97.5144 39.6385 97.5471 39.5839C97.5798 39.5292 97.5969 39.4679 97.5969 39.4055C97.5972 39.339 97.5757 39.274 97.5351 39.2189C97.4945 39.1639 97.4367 39.1213 97.3693 39.097C97.1352 39.003 96.8926 38.9278 96.6443 38.8724C96.3551 38.8128 96.0709 38.7345 95.7938 38.638C95.5766 38.5562 95.3835 38.4284 95.2303 38.265C95.064 38.0732 94.9801 37.8321 94.9943 37.5873C94.9899 37.3592 95.0644 37.1356 95.2069 36.9487C95.3691 36.7453 95.5901 36.5877 95.8448 36.4937C96.1503 36.3763 96.4791 36.3191 96.8101 36.3257C97.2812 36.303 97.7454 36.4368 98.1178 36.7027C98.2794 36.8283 98.4107 36.9835 98.5034 37.1583C98.596 37.3332 98.6479 37.5239 98.6558 37.7182H97.5458C97.5411 37.6404 97.5184 37.5645 97.4792 37.4954C97.4399 37.4264 97.3851 37.3658 97.3183 37.3178C97.1667 37.2283 96.992 37.1774 96.8119 37.1702C96.6319 37.163 96.453 37.1998 96.2935 37.2768C96.2393 37.3083 96.195 37.3522 96.1652 37.4043C96.1353 37.4564 96.1209 37.5148 96.1234 37.5737C96.123 37.6424 96.1448 37.7097 96.186 37.7671C96.2273 37.8244 96.2861 37.8692 96.3551 37.8959C96.5851 37.9944 96.8261 38.0697 97.0738 38.1205C97.3532 38.181 97.6275 38.2599 97.8945 38.3568C98.1114 38.4381 98.3034 38.5668 98.4538 38.7317C98.6189 38.923 98.7055 39.1615 98.6983 39.4055C98.7033 39.6386 98.629 39.8673 98.4856 40.0597C98.3247 40.2633 98.1032 40.42 97.8478 40.5109C97.5453 40.6255 97.2202 40.6814 96.8931 40.6749C96.5466 40.6797 96.2029 40.6165 95.8852 40.4894Z" fill="#006838"/>
<path d="M30.3704 32.7733H23.4515L7.78514 11.0313V32.7733H0.866241V1.0459H7.78514L23.4515 22.8328V1.0459H30.3704V32.7733Z" fill="#231F20"/>
<path d="M96.9887 19.2023C98.2303 20.6142 98.8979 22.3792 98.8769 24.194C98.9119 25.775 98.4394 27.3304 97.5182 28.6663C96.6124 29.9539 95.3026 30.9596 93.5888 31.6835C91.875 32.4074 89.8487 32.7707 87.5098 32.7733H72.6259V1.09082H86.8592C89.1981 1.09082 91.2159 1.43844 92.9127 2.13369C94.6094 2.82893 95.8944 3.79759 96.7676 5.03965C97.6466 6.29819 98.1022 7.76682 98.0774 9.2619C98.0774 11.1081 97.5423 12.6509 96.4721 13.8904C95.3736 15.1491 93.8811 16.0679 92.1961 16.5229C94.1015 16.836 95.8108 17.7916 96.9887 19.2023ZM79.5427 14.1638H85.8683C87.5169 14.1638 88.7856 13.8233 89.6744 13.1424C90.5631 12.4615 91.0082 11.4837 91.0097 10.2091C91.0097 8.93836 90.5653 7.95474 89.6765 7.25819C88.7877 6.56164 87.519 6.21337 85.8704 6.21337H79.5427V14.1638ZM90.4398 26.5102C91.3796 25.7837 91.8495 24.7545 91.8495 23.4226C91.8495 22.0608 91.3534 20.9945 90.3611 20.2237C89.3689 19.453 88.035 19.0669 86.3595 19.0656H79.5427V27.5999H86.5105C88.193 27.5999 89.5028 27.2367 90.4398 26.5102Z" fill="#231F20"/>
<path d="M71.5691 31.3751C56.5279 37.8198 45.8646 20.0832 58.6137 9.30692C61.7394 6.66265 64.142 4.61987 67.1188 0.778452C68.2011 -0.612037 73.0724 13.3202 68.5711 20.4601C62.4346 30.1779 53.7722 25.0398 62.4049 16.2555C62.0912 16.3266 61.7824 16.4147 61.4799 16.5191C59.9065 17.2222 58.2416 20.3 58.2416 20.0344C58.2416 17.7202 60.555 13.8787 63.5148 11.6797C63.6891 11.5508 57.7611 13.8436 56.9467 18.6263C54.3548 33.8397 69.8086 31.6426 71.567 31.379" fill="url(#paint0_radial_52_220)"/>
<path d="M32.3564 31.7088C45.6817 37.425 50.957 25.1137 51.142 21.5086C51.6034 12.49 42.9899 9.05282 36.7981 1.10633C35.7137 -0.284156 30.8446 13.6481 35.3459 20.788C41.4802 30.5058 50.1448 25.3676 41.5121 16.5833C41.8265 16.6544 42.136 16.7425 42.4392 16.847C44.0105 17.55 45.6775 20.6279 45.6775 20.3623C45.6775 18.05 43.3641 14.2066 40.4022 12.0076C40.23 11.8807 46.158 14.1715 46.9724 18.9561C49.5643 34.1695 34.1105 31.9705 32.3521 31.7068" fill="url(#paint1_radial_52_220)"/>
<path d="M52.254 9.89263C47.4487 9.89263 47.4423 2.97925 52.254 2.97925C57.0658 2.97925 57.0658 9.89263 52.254 9.89263Z" fill="url(#paint2_radial_52_220)"/>
</g>
<defs>
<radialGradient id="paint0_radial_52_220" cx="0" cy="0" r="1" gradientUnits="userSpaceOnUse" gradientTransform="translate(52.0967 18.2223) scale(39.8804 37.7281)">
<stop stop-color="#8AC440"/>
<stop offset="0.35" stop-color="#55B143"/>
<stop offset="0.79" stop-color="#189B46"/>
<stop offset="1" stop-color="#009247"/>
</radialGradient>
<radialGradient id="paint1_radial_52_220" cx="0" cy="0" r="1" gradientUnits="userSpaceOnUse" gradientTransform="translate(52.0967 18.2221) scale(39.8804 37.7281)">
<stop stop-color="#8AC440"/>
<stop offset="0.35" stop-color="#55B143"/>
<stop offset="0.79" stop-color="#189B46"/>
<stop offset="1" stop-color="#009247"/>
</radialGradient>
<radialGradient id="paint2_radial_52_220" cx="0" cy="0" r="1" gradientUnits="userSpaceOnUse" gradientTransform="translate(52.0967 18.2221) scale(39.8804 37.7281)">
<stop stop-color="#8AC440"/>
<stop offset="0.35" stop-color="#55B143"/>
<stop offset="0.79" stop-color="#189B46"/>
<stop offset="1" stop-color="#009247"/>
</radialGradient>
<clipPath id="clip0_52_220">
<rect width="98" height="40" fill="white" transform="translate(0.866241 0.674805)"/>
</clipPath>
</defs>
</svg>
